<svg width="12" height="12" viewBox="0 0 12 12" fill="none" xmlns="http://www.w3.org/2000/svg">
<path d="M11.1429 4.71429H7.28571V0.857143C7.28571 0.383839 6.90188 0 6.42857 0H5.57143C5.09812 0 4.71429 0.383839 4.71429 0.857143V4.71429H0.857143C0.383839 4.71429 0 5.09812 0 5.57143V6.42857C0 6.90188 0.383839 7.28571 0.857143 7.28571H4.71429V11.1429C4.71429 11.6162 5.09812 12 5.57143 12H6.42857C6.90188 12 7.28571 11.6162 7.28571 11.1429V7.28571H11.1429C11.6162 7.28571 12 6.90188 12 6.42857V5.57143C12 5.09812 11.6162 4.71429 11.1429 4.71429Z" fill="#718096"/>
</svg>
