<svg width="17" height="14" viewBox="0 0 17 14" fill="none" xmlns="http://www.w3.org/2000/svg">
<path d="M16.172 7.27678L10.3938 13.0551C10.2289 13.22 10.0091 13.3105 9.77465 13.3105C9.53998 13.3105 9.32028 13.2199 9.15534 13.0551L8.63072 12.5303C8.46591 12.3656 8.37512 12.1457 8.37512 11.9111C8.37512 11.6767 8.46591 11.4494 8.63072 11.2847L12.0016 7.90636H1.29212C0.80926 7.90636 0.427734 7.52835 0.427734 7.04536V6.30352C0.427734 5.82053 0.80926 5.4044 1.29212 5.4044H12.0399L8.63085 2.00723C8.46604 1.84228 8.37525 1.6283 8.37525 1.39377C8.37525 1.15949 8.46604 0.942389 8.63085 0.777577L9.15547 0.254525C9.32041 0.0895834 9.54011 -0.000301361 9.77478 -0.000301361C10.0092 -0.000301361 10.229 0.0907536 10.394 0.255695L16.1721 6.03386C16.3375 6.19932 16.4284 6.4202 16.4277 6.65499C16.4283 6.89057 16.3375 7.11157 16.172 7.27678Z" fill="#196aff"/>
</svg>
