<svg width="100" height="100" viewBox="0 0 100 100" fill="none" xmlns="http://www.w3.org/2000/svg">
<path d="M48.3867 38.709V48.3864H99.9996V38.709H48.3867ZM96.7738 45.1606H51.6125V41.9348H96.7738V45.1606Z" fill="#718096"/>
<path d="M51.6133 35.4841H54.8391V33.0518L74.1939 18.1647L93.5488 33.0518V35.4841H96.7746V31.4647L74.1939 14.0938L51.6133 31.4647V35.4841Z" fill="#718096"/>
<path d="M100 82.2588C100 77.7329 98.4436 73.2959 95.6161 69.762L94.2032 67.9959C93.2564 66.8104 91.8419 66.1297 90.3226 66.1297C89.1177 66.1297 87.9887 66.5733 87.0968 67.341V64.5168H77.4194V74.1942H82.3532C81.2403 76.7233 80.6452 79.4733 80.6452 82.2588C80.6452 87.0442 84.1403 91.0184 88.7097 91.791V96.7749H80.6452V82.2588V80.6459H67.7419V96.7749H51.6129V91.791C56.1823 91.02 59.6774 87.0459 59.6774 82.2588C59.6774 77.7329 58.121 73.2959 55.2936 69.762L53.8806 67.9959C52.9339 66.8104 51.5194 66.1297 50 66.1297C48.4806 66.1297 47.0661 66.8104 46.121 67.9942L44.7065 69.762C41.879 73.2959 40.3226 77.7329 40.3226 82.2588C40.3226 87.0442 43.8177 91.0184 48.3871 91.791V96.7749H33.871V80.6459H20.9677V96.7749H11.2903V91.791C15.8597 91.02 19.3548 87.0459 19.3548 82.2588C19.3548 78.2329 18.1161 74.2813 15.8548 70.9684H17.7419V61.291H8.06452V66.4281C7.1871 66.7297 6.39355 67.2475 5.79839 67.9942L4.38387 69.762C1.55645 73.2959 0 77.7329 0 82.2588C0 87.0442 3.49516 91.0184 8.06452 91.791V96.7749H3.22581V91.9362H0V100.001H8.06452H11.2903H48.3871H51.6129H88.7097H91.9355H100V91.9362H96.7742V96.7749H91.9355V91.791C96.5048 91.0184 100 87.0442 100 82.2588ZM11.2903 64.5168H14.5161V67.7426H13.3048C12.7435 67.1346 12.0565 66.6926 11.2903 66.4281V64.5168ZM8.06452 80.6459V88.4813C5.29032 87.7604 3.22581 85.2571 3.22581 82.2588C3.22581 78.462 4.53226 74.741 6.90161 71.7781L8.31613 70.0088C8.65 69.5926 9.14516 69.3555 9.67742 69.3555C10.2097 69.3555 10.7048 69.5926 11.0387 70.0104L12.4532 71.7781C14.8226 74.741 16.129 78.462 16.129 82.2588C16.129 85.2571 14.0645 87.7604 11.2903 88.4813V80.6459H8.06452ZM30.6452 96.7749H24.1935V83.8717H30.6452V96.7749ZM48.3871 80.6459V88.4813C45.6129 87.7604 43.5484 85.2571 43.5484 82.2588C43.5484 78.462 44.8548 74.741 47.2242 71.7781L48.6387 70.0088C48.9726 69.5926 49.4677 69.3555 50 69.3555C50.5323 69.3555 51.0274 69.5926 51.3613 70.0104L52.7758 71.7781C55.1452 74.741 56.4516 78.462 56.4516 82.2588C56.4516 85.2571 54.3871 87.7604 51.6129 88.4813V80.6459H48.3871ZM77.4194 96.7749H70.9677V83.8717H77.4194V96.7749ZM80.6452 70.9684V67.7426H83.871V70.9684H80.6452ZM88.7097 80.6459V88.4813C85.9355 87.7604 83.871 85.2571 83.871 82.2588C83.871 78.462 85.1774 74.741 87.5468 71.7781L88.9613 70.0088C89.2952 69.5926 89.7903 69.3555 90.3226 69.3555C90.8548 69.3555 91.35 69.5926 91.6839 70.0104L93.0984 71.7781C95.4677 74.741 96.7742 78.462 96.7742 82.2588C96.7742 85.2571 94.7097 87.7604 91.9355 88.4813V80.6459H88.7097Z" fill="#718096"/>
<path d="M54.8391 51.6133H51.6133V64.5165H54.8391V51.6133Z" fill="#718096"/>
<path d="M96.7746 51.6133H93.5488V64.5165H96.7746V51.6133Z" fill="#718096"/>
<path d="M87.0964 51.6133H77.4189V61.2907H87.0964V51.6133ZM83.8706 58.0649H80.6448V54.8391H83.8706V58.0649Z" fill="#718096"/>
<path d="M70.9675 51.6133H61.29V61.2907H70.9675V51.6133ZM67.7417 58.0649H64.5158V54.8391H67.7417V58.0649Z" fill="#718096"/>
<path d="M30.6452 22.5801H20.9678V32.2575H30.6452V22.5801ZM27.4194 29.0317H24.1936V25.8059H27.4194V29.0317Z" fill="#718096"/>
<path d="M43.5485 22.5801H33.8711V32.2575H43.5485V22.5801ZM40.3227 29.0317H37.0969V25.8059H40.3227V29.0317Z" fill="#718096"/>
<path d="M17.7419 22.5801H8.06445V32.2575H17.7419V22.5801ZM14.5161 29.0317H11.2903V25.8059H14.5161V29.0317Z" fill="#718096"/>
<path d="M30.6452 35.4844H20.9678V45.1618H30.6452V35.4844ZM27.4194 41.936H24.1936V38.7102H27.4194V41.936Z" fill="#718096"/>
<path d="M43.5485 35.4844H33.8711V45.1618H43.5485V35.4844ZM40.3227 41.936H37.0969V38.7102H40.3227V41.936Z" fill="#718096"/>
<path d="M17.7419 35.4844H8.06445V45.1618H17.7419V35.4844ZM14.5161 41.936H11.2903V38.7102H14.5161V41.936Z" fill="#718096"/>
<path d="M30.6452 48.3867H20.9678V58.0641H30.6452V48.3867ZM27.4194 54.8383H24.1936V51.6125H27.4194V54.8383Z" fill="#718096"/>
<path d="M43.5485 48.3867H33.8711V58.0641H43.5485V48.3867ZM40.3227 54.8383H37.0969V51.6125H40.3227V54.8383Z" fill="#718096"/>
<path d="M8.06445 58.0641H17.7419V48.3867H8.06445V58.0641ZM11.2903 51.6125H14.5161V54.8383H11.2903V51.6125Z" fill="#718096"/>
<path d="M20.9678 70.9684H30.6452V61.291H20.9678V70.9684ZM24.1936 64.5168H27.4194V67.7426H24.1936V64.5168Z" fill="#718096"/>
<path d="M33.8711 70.9684H43.5485V61.291H33.8711V70.9684ZM37.0969 64.5168H40.3227V67.7426H37.0969V64.5168Z" fill="#718096"/>
<path d="M61.29 74.193H70.9675V64.5156H61.29V74.193ZM64.5158 67.7414H67.7417V70.9672H64.5158V67.7414Z" fill="#718096"/>
<path d="M3.22581 19.3547H48.3871V27.4192H51.6129V16.1289H0V69.3547H3.22581V19.3547Z" fill="#718096"/>
<path d="M8.06467 9.67742H43.5485V12.9032H46.7744V6.45161H43.5485V0H8.06467V6.45161H4.83887V12.9032H8.06467V9.67742ZM11.2905 3.22581H40.3227V6.45161H11.2905V3.22581Z" fill="#718096"/>
</svg>
