<svg width="42" height="48" viewBox="0 0 42 48" fill="none" xmlns="http://www.w3.org/2000/svg">
<path d="M0 44.8001C0 46.5674 1.43262 48 3.19985 48H38.3982C40.1654 48 41.5981 46.5674 41.5981 44.8001V42.4003C41.5882 42.2353 41.537 42.0755 41.4493 41.9355L37.5983 36.5437V20.0013C37.5983 18.6759 36.5238 17.6014 35.1984 17.6014H33.688C33.8008 17.2854 33.904 16.971 34.004 16.6567C36.0254 15.5098 37.5056 13.604 38.1166 11.3617C39.2918 6.82031 36.5351 2.18693 36.4167 1.99174C36.2383 1.6976 35.8919 1.55043 35.5564 1.62624C35.2209 1.70205 34.9714 1.98387 34.9368 2.32612C34.7768 3.91965 33.8688 5.32278 29.8394 7.39309C28.6528 7.93526 27.7315 8.92834 27.2796 10.1522C26.8278 11.3761 26.8827 12.7296 27.4323 13.9128C26.8276 14.9783 26.2628 16.0375 25.7668 17.063C25.4204 17.7758 25.106 18.4878 24.8068 19.1989L24.8148 9.60178C24.7985 9.49367 24.775 9.38677 24.7445 9.2818L22.5878 1.36216C22.369 0.558034 21.6388 0 20.8054 0C19.9721 0 19.2419 0.558034 19.0231 1.36216L16.832 9.39059C16.8176 9.46079 16.808 9.53188 16.8032 9.60338V16.7143L12.9098 7.31709C12.56 6.51388 11.6344 6.13512 10.8219 6.46273L4.16701 9.2138C3.35044 9.55344 2.96288 10.49 3.30065 11.3073L5.92933 17.6486C4.80767 17.8728 4.00012 18.8575 3.99981 20.0013V36.5437L0.148793 41.9355C0.0611719 42.0756 0.0100187 42.2353 0 42.4003L0 44.8001ZM39.9981 44.8001C39.9981 45.6838 39.2818 46.4001 38.3982 46.4001H3.19985C2.31624 46.4001 1.59993 45.6838 1.59993 44.8001V43.2002H13.2682L14.6337 44.5658C14.7837 44.7158 14.9871 44.8001 15.1993 44.8001H26.3988C26.6109 44.8001 26.8144 44.7158 26.9643 44.5658L28.3299 43.2002H39.9981V44.8001ZM20.799 43.2002H15.5305L14.5145 42.1843L14.9761 40.8003H26.622L27.0835 42.1843L26.0676 43.2002H20.799ZM28.6619 14.9735L29.9194 15.5391C30.7258 15.9023 31.5385 16.2687 32.3345 16.6239C32.1673 17.1174 31.9849 17.615 31.7889 18.1118C31.7089 18.327 31.6137 18.5446 31.5241 18.7614C30.2345 18.3839 28.9946 17.8537 27.8307 17.1822C27.7411 17.1342 27.6547 17.0902 27.5667 17.0422C27.9099 16.3607 28.2707 15.6719 28.6619 14.9735ZM30.5706 8.81382C33.3817 7.36909 35.0456 6.06995 35.8815 4.57802C36.7574 6.58749 36.9961 8.81717 36.5655 10.9665C36.058 12.7843 34.8546 14.3289 33.2161 15.2655C32.3313 14.8703 31.4489 14.4744 30.5762 14.0816L28.9283 13.34C28.5258 12.5249 28.4735 11.5807 28.7835 10.7261C29.0936 9.87149 29.739 9.18049 30.5706 8.81302V8.81382ZM26.8716 18.4814C26.9387 18.5174 27.0051 18.551 27.0731 18.5878C28.2792 19.2767 29.5572 19.8312 30.8842 20.2413C29.7612 22.6444 28.4784 24.9695 27.0443 27.201H24.7988V23.9795C25.3453 22.0955 26.0383 20.2572 26.8716 18.4814ZM21.599 27.201V19.2013C21.599 18.7595 21.2408 18.4014 20.799 18.4014C20.3572 18.4014 19.9991 18.7595 19.9991 19.2013V27.201H18.3991V12.0017C18.8689 12.3634 19.4168 12.61 19.9991 12.7216V15.2015C19.9991 15.6433 20.3572 16.0015 20.799 16.0015C21.2408 16.0015 21.599 15.6433 21.599 15.2015V12.7216C22.185 12.6098 22.7364 12.3615 23.2085 11.9969L23.1989 23.8627C23.1989 23.8715 23.1949 23.8819 23.1949 23.8907V23.9083L23.1989 27.201H21.599ZM23.1597 9.55138C22.7663 10.5165 21.8445 11.162 20.803 11.2017C19.7615 11.1614 18.84 10.5152 18.4471 9.54978L19.1919 6.82191C20.2071 7.3285 21.4014 7.3285 22.4166 6.82191L23.1597 9.55138ZM21.0438 1.78454L21.9918 5.26438C21.6267 5.46604 21.2204 5.58151 20.8038 5.60197C20.3875 5.58125 19.9814 5.4655 19.6167 5.26358L20.567 1.78454C20.6061 1.6871 20.7005 1.62321 20.8054 1.62321C20.9104 1.62321 21.0048 1.6871 21.0438 1.78454ZM11.4395 7.93786L12.0514 9.41539L9.09158 10.6409C8.8193 10.7446 8.62488 10.988 8.58405 11.2765C8.54323 11.5649 8.66245 11.8528 8.89528 12.0279C9.12811 12.203 9.43774 12.2377 9.70355 12.1185L12.6634 10.8929L13.2762 12.3713L11.7947 12.9848C11.4417 13.1309 11.2413 13.506 11.3161 13.8806C11.3908 14.2551 11.7199 14.5246 12.1018 14.524C12.2067 14.5236 12.3104 14.5029 12.4074 14.4632L13.8882 13.8496L14.5001 15.3279L11.5403 16.5535C11.1874 16.6995 10.9869 17.0747 11.0617 17.4492C11.1364 17.8237 11.4655 18.0932 11.8475 18.0926C11.9523 18.0922 12.056 18.0716 12.153 18.0318L15.1129 16.8062L16.0401 19.0461L16.7992 20.7741V27.201H11.6219L4.77738 10.6929L11.4395 7.93786ZM5.59974 20.0013C5.59974 19.5595 5.9579 19.2013 6.3997 19.2013H6.5733L9.88994 27.201H9.59955C9.15775 27.201 8.79959 27.5591 8.79959 28.0009C8.79959 28.4427 9.15775 28.8009 9.59955 28.8009H31.9985C32.4403 28.8009 32.7985 28.4427 32.7985 28.0009C32.7985 27.5591 32.4403 27.201 31.9985 27.201H28.9307C30.5331 24.6552 31.9187 21.9792 33.0729 19.2013H35.1984C35.6402 19.2013 35.9983 19.5595 35.9983 20.0013V36.0006H5.59974V20.0013ZM5.21176 37.6005H36.3863L39.2438 41.6003H28.5755L27.9579 39.7476C27.8491 39.4208 27.5432 39.2003 27.1987 39.2004H14.3993C14.0549 39.2003 13.749 39.4208 13.6402 39.7476L13.0226 41.6003H2.35429L5.21176 37.6005Z" fill="#718096"/>
<path d="M32.7718 13.7962C32.9224 13.796 33.07 13.7533 33.1974 13.673C34.6079 12.7593 35.5704 11.2958 35.8509 9.63882C35.8951 9.19922 35.5745 8.80704 35.1349 8.76286C34.6953 8.71868 34.3031 9.03923 34.2589 9.47883C34.0249 10.6445 33.3334 11.6677 32.339 12.3195C32.038 12.51 31.8992 12.8766 31.9986 13.2186C32.098 13.5607 32.4116 13.7959 32.7678 13.7954L32.7718 13.7962Z" fill="#718096"/>
</svg>
