<svg width="24" height="24" viewBox="0 0 24 24" fill="none" xmlns="http://www.w3.org/2000/svg">
<path fill-rule="evenodd" clip-rule="evenodd" d="M12 0C9.62663 0 7.30655 0.703788 5.33316 2.02236C3.35977 3.34094 1.8217 5.21509 0.913451 7.4078C0.00519943 9.60051 -0.232441 12.0133 0.230582 14.3411C0.693605 16.6689 1.83649 18.8071 3.51472 20.4853C5.19295 22.1635 7.33115 23.3064 9.65892 23.7694C11.9867 24.2324 14.3995 23.9948 16.5922 23.0866C18.7849 22.1783 20.6591 20.6402 21.9776 18.6668C23.2962 16.6935 24 14.3734 24 12C24 8.8174 22.7357 5.76515 20.4853 3.51472C18.2348 1.26428 15.1826 0 12 0V0ZM14.57 19.91C14.16 19.99 14.01 19.74 14.01 19.52C14.01 19.3 14.01 18.38 14.01 17.29C14.0277 17.014 13.988 16.7372 13.8933 16.4773C13.7987 16.2174 13.6511 15.98 13.46 15.78C15.27 15.58 17.17 14.9 17.17 11.78C17.1867 10.9732 16.889 10.1915 16.34 9.6C16.5801 8.89809 16.5516 8.13213 16.26 7.45C16.26 7.45 15.58 7.23 14.02 8.28C12.6906 7.92018 11.2894 7.92018 9.96001 8.28C8.40001 7.28 7.72001 7.45 7.72001 7.45C7.4317 8.13337 7.40676 8.89932 7.65001 9.6C7.10098 10.1915 6.80335 10.9732 6.82001 11.78C6.82001 14.89 8.71001 15.59 10.52 15.78C10.2221 16.0737 10.0379 16.4634 10 16.88C9.80061 16.9912 9.58117 17.0618 9.35434 17.0878C9.12752 17.1138 8.89779 17.0947 8.6784 17.0314C8.45902 16.9682 8.25432 16.8622 8.0761 16.7195C7.89788 16.5768 7.74966 16.4003 7.64001 16.2C7.50901 15.9743 7.32839 15.7814 7.11183 15.6359C6.89526 15.4904 6.64843 15.396 6.39001 15.36C6.39001 15.36 5.60001 15.36 6.39001 15.86C6.82183 16.1372 7.14088 16.559 7.29001 17.05C7.29001 17.05 7.77001 18.63 10.03 18.14C10.03 18.81 10.03 19.32 10.03 19.52C10.03 19.72 9.88001 19.98 9.47001 19.91C7.64122 19.2998 6.0892 18.0589 5.09161 16.4091C4.09402 14.7594 3.71595 12.8086 4.02504 10.9056C4.33413 9.00264 5.31022 7.27174 6.77866 6.02256C8.24711 4.77338 10.1121 4.08744 12.04 4.08744C13.9679 4.08744 15.8329 4.77338 17.3013 6.02256C18.7698 7.27174 19.7459 9.00264 20.055 10.9056C20.3641 12.8086 19.986 14.7594 18.9884 16.4091C17.9908 18.0589 16.4388 19.2998 14.61 19.91H14.57Z" fill="#196AFF"/>
</svg>
