<svg width="40" height="40" viewBox="0 0 40 40" fill="none" xmlns="http://www.w3.org/2000/svg">
<path d="M15.7825 28.0321C15.6315 28.0321 15.4793 27.9801 15.3551 27.8744L11.0818 24.2357C10.9344 24.11 10.8496 23.9265 10.8496 23.7326C10.8496 23.5392 10.9347 23.3557 11.0818 23.23L15.3551 19.5913C15.6326 19.3547 16.0493 19.3882 16.2859 19.6657C16.5222 19.9436 16.489 20.3604 16.2111 20.5966L12.5286 23.7326L16.2111 26.8687C16.489 27.1053 16.5222 27.5221 16.2859 27.7996C16.1551 27.9532 15.9694 28.0321 15.7825 28.0321Z" fill="#718096"/>
<path d="M24.2173 28.0321C24.0305 28.0321 23.8448 27.9532 23.7143 27.7996C23.4777 27.5221 23.5113 27.1053 23.7888 26.8687L27.4713 23.7326L23.7888 20.5966C23.5113 20.3604 23.4777 19.9436 23.7143 19.6657C23.9505 19.3882 24.3677 19.3547 24.6448 19.5913L28.9181 23.23C29.0655 23.3557 29.1503 23.5392 29.1503 23.7326C29.1503 23.9265 29.0655 24.11 28.9181 24.2357L24.6448 27.8744C24.5206 27.9801 24.3684 28.0321 24.2173 28.0321Z" fill="#718096"/>
<path d="M18.4876 30.7608C18.4423 30.7608 18.3966 30.756 18.3505 30.7464C17.9938 30.6712 17.7653 30.3208 17.8405 29.9641L20.5037 17.3193C20.5789 16.9625 20.929 16.7341 21.2861 16.8092C21.6428 16.8844 21.8713 17.2345 21.7961 17.5916L19.1329 30.2364C19.0673 30.5474 18.7931 30.7608 18.4876 30.7608Z" fill="#718096"/>
<path d="M35.566 37.6495H4.43396C1.98924 37.6495 0 35.6607 0 33.2156V6.79236C0 4.34764 1.98924 2.3584 4.43396 2.3584H35.566C38.0108 2.3584 40 4.34764 40 6.79236V33.2156C40 35.6607 38.0108 37.6495 35.566 37.6495ZM4.43396 3.67915C2.71742 3.67915 1.32075 5.07582 1.32075 6.79236V33.2156C1.32075 34.9321 2.71742 36.3288 4.43396 36.3288H35.566C37.2826 36.3288 38.6792 34.9321 38.6792 33.2156V6.79236C38.6792 5.07582 37.2826 3.67915 35.566 3.67915H4.43396Z" fill="#718096"/>
<path d="M39.3396 12.9331H0.660377C0.295548 12.9331 0 12.6375 0 12.2727C0 11.9082 0.295548 11.6123 0.660377 11.6123H39.3396C39.7045 11.6123 40 11.9082 40 12.2727C40 12.6375 39.7045 12.9331 39.3396 12.9331Z" fill="#718096"/>
<path d="M11.2832 9.77344C10.1312 9.77344 9.19336 8.83557 9.19336 7.68359C9.19336 6.53125 10.1312 5.59375 11.2832 5.59375C12.4355 5.59375 13.373 6.53125 13.373 7.68359C13.373 8.83557 12.4355 9.77344 11.2832 9.77344ZM11.2832 6.9145C10.8594 6.9145 10.5141 7.25943 10.5141 7.68359C10.5141 8.10775 10.8594 8.45268 11.2832 8.45268C11.7074 8.45268 12.0523 8.10775 12.0523 7.68359C12.0523 7.25943 11.7074 6.9145 11.2832 6.9145Z" fill="#718096"/>
<path d="M4.86133 9.75293C3.70898 9.75293 2.77148 8.81543 2.77148 7.66309C2.77148 6.51074 3.70898 5.57324 4.86133 5.57324C6.01367 5.57324 6.95117 6.51074 6.95117 7.66309C6.95117 8.81543 6.01367 9.75293 4.86133 9.75293ZM4.86133 6.894C4.43754 6.894 4.09224 7.23929 4.09224 7.66309C4.09224 8.08725 4.43754 8.43217 4.86133 8.43217C5.28549 8.43217 5.63042 8.08725 5.63042 7.66309C5.63042 7.23929 5.28549 6.894 4.86133 6.894Z" fill="#718096"/>
<path d="M17.7047 9.7926C16.5527 9.7926 15.6152 8.8551 15.6152 7.70276C15.6152 6.55078 16.5527 5.61328 17.7047 5.61328C18.8571 5.61328 19.7946 6.55078 19.7946 7.70276C19.7946 8.8551 18.8571 9.7926 17.7047 9.7926ZM17.7047 6.93367C17.2809 6.93367 16.936 7.2786 16.936 7.70276C16.936 8.12692 17.2809 8.47185 17.7047 8.47185C18.1289 8.47185 18.4738 8.12692 18.4738 7.70276C18.4738 7.2786 18.1289 6.93367 17.7047 6.93367Z" fill="#718096"/>
</svg>
