<svg width="22" height="20" viewBox="0 0 22 20" fill="none" xmlns="http://www.w3.org/2000/svg">
<path fill-rule="evenodd" clip-rule="evenodd" d="M1.71 2.54039C1.32 2.15039 1.32 1.52039 1.71 1.13039C2.1 0.740391 2.74 0.740391 3.13 1.13039L19.44 17.4604C19.83 17.8504 19.83 18.4804 19.44 18.8704C19.05 19.2604 18.42 19.2604 18.03 18.8704L15.31 16.1504C13.97 16.6704 12.52 16.9704 11 16.9704C6 16.9704 1.73 13.8604 0 9.47039C0.77 7.50039 2.06 5.80039 3.68 4.51039L1.71 2.54039ZM16 9.47039C16 6.71039 13.76 4.47039 11 4.47039C10.49 4.47039 10 4.57039 9.53 4.71039L7.36 2.54039C8.51 2.17039 9.73 1.97039 11 1.97039C16 1.97039 20.27 5.08039 22 9.46039C21.31 11.2204 20.21 12.7604 18.82 13.9904L15.76 10.9304C15.9 10.4704 16 9.98039 16 9.47039ZM11 14.4704C8.24 14.4704 6 12.2304 6 9.47039C6 8.70039 6.18 7.97039 6.49 7.33039L8.06 8.90039C8.03 9.08039 8 9.27039 8 9.47039C8 11.1304 9.34 12.4704 11 12.4704C11.2 12.4704 11.38 12.4404 11.57 12.4004L13.14 13.9704C12.49 14.2904 11.77 14.4704 11 14.4704ZM13.97 9.14039C13.82 7.74039 12.72 6.65039 11.33 6.50039L13.97 9.14039Z" fill="#718096"/>
</svg>
