<svg width="40" height="40" viewBox="0 0 40 40" fill="none" xmlns="http://www.w3.org/2000/svg">
<path d="M35.625 21.5812V9.325C37.7419 9.02 39.375 7.19938 39.375 5C39.375 2.58812 37.4125 0.625 35 0.625C32.5875 0.625 30.625 2.58812 30.625 5H0.625V30H19.4069C19.7319 35.2225 24.0725 39.375 29.375 39.375C34.8887 39.375 39.375 34.8887 39.375 29.375C39.375 26.2256 37.9081 23.4156 35.625 21.5812ZM35 1.875C36.7231 1.875 38.125 3.27688 38.125 5C38.125 6.72312 36.7231 8.125 35 8.125C33.2769 8.125 31.875 6.72312 31.875 5C31.875 3.27688 33.2769 1.875 35 1.875ZM1.875 6.25H30.8094C30.9587 6.74875 31.1963 7.20813 31.5013 7.61563L27.6787 11.4381C27.4338 11.3206 27.1637 11.25 26.875 11.25C26.5863 11.25 26.3162 11.3206 26.0719 11.4381L24.8125 10.1787C24.9294 9.93375 25 9.66375 25 9.375C25 8.34125 24.1588 7.5 23.125 7.5C22.0912 7.5 21.25 8.34125 21.25 9.375C21.25 9.66375 21.3206 9.93375 21.4381 10.1781L18.3037 13.3125C18.0588 13.1956 17.7887 13.125 17.5 13.125C16.4663 13.125 15.625 13.9663 15.625 15C15.625 16.0337 16.4663 16.875 17.5 16.875C18.5338 16.875 19.375 16.0337 19.375 15C19.375 14.7113 19.3044 14.4412 19.1869 14.1969L22.3213 11.0625C22.5662 11.1794 22.8363 11.25 23.125 11.25C23.4137 11.25 23.6838 11.1794 23.9281 11.0619L25.1875 12.3213C25.0706 12.5663 25 12.8363 25 13.125C25 14.1587 25.8412 15 26.875 15C27.9088 15 28.75 14.1587 28.75 13.125C28.75 12.8363 28.6794 12.5662 28.5619 12.3219L32.385 8.49937C32.9569 8.92813 33.6356 9.21875 34.375 9.32562V20.7288C32.9019 19.8731 31.1975 19.375 29.375 19.375C26.3875 19.375 23.7087 20.6987 21.875 22.7831V20H18.125V27.5H19.5575C19.48 27.9081 19.4331 28.3263 19.4069 28.75H1.875V6.25ZM26.875 12.5C27.2194 12.5 27.5 12.78 27.5 13.125C27.5 13.47 27.2194 13.75 26.875 13.75C26.5306 13.75 26.25 13.47 26.25 13.125C26.25 12.78 26.5306 12.5 26.875 12.5ZM22.5 9.375C22.5 9.03 22.7806 8.75 23.125 8.75C23.4694 8.75 23.75 9.03 23.75 9.375C23.75 9.72 23.4694 10 23.125 10C22.7806 10 22.5 9.72 22.5 9.375ZM18.125 15C18.125 15.345 17.8444 15.625 17.5 15.625C17.1556 15.625 16.875 15.345 16.875 15C16.875 14.655 17.1556 14.375 17.5 14.375C17.8444 14.375 18.125 14.655 18.125 15ZM29.375 34.375C26.6181 34.375 24.375 32.1319 24.375 29.375C24.375 26.6181 26.6181 24.375 29.375 24.375C32.1319 24.375 34.375 26.6181 34.375 29.375C34.375 32.1319 32.1319 34.375 29.375 34.375ZM20.625 24.5444C20.3256 25.0844 20.0781 25.655 19.8819 26.25H19.375V21.25H20.625V24.5444ZM28.75 20.6569V23.1569C25.5963 23.4719 23.125 26.14 23.125 29.375C23.125 30.2894 23.3275 31.1562 23.6819 31.94L21.5138 33.1919C20.95 32.0369 20.625 30.7444 20.625 29.375C20.625 24.7612 24.2169 20.9794 28.75 20.6569ZM29.375 38.125C26.3662 38.125 23.7075 36.5981 22.1325 34.2781L24.3094 33.0212C25.4456 34.595 27.29 35.625 29.375 35.625C31.46 35.625 33.3044 34.595 34.4406 33.0212L36.6175 34.2781C35.0425 36.5981 32.3838 38.125 29.375 38.125ZM37.2362 33.1919L35.0681 31.94C35.4225 31.1562 35.625 30.2894 35.625 29.375C35.625 26.14 33.1538 23.4712 30 23.1569V20.6569C34.5331 20.9794 38.125 24.7612 38.125 29.375C38.125 30.7444 37.8 32.0369 37.2362 33.1919Z" fill="#718096"/>
<path d="M29.375 25.625C27.3069 25.625 25.625 27.3069 25.625 29.375C25.625 31.4431 27.3069 33.125 29.375 33.125C31.4431 33.125 33.125 31.4431 33.125 29.375C33.125 27.3069 31.4431 25.625 29.375 25.625ZM29.375 31.875C27.9962 31.875 26.875 30.7537 26.875 29.375C26.875 27.9962 27.9962 26.875 29.375 26.875C30.7537 26.875 31.875 27.9962 31.875 29.375C31.875 30.7537 30.7537 31.875 29.375 31.875Z" fill="#718096"/>
<path d="M3.125 7.5H4.375V8.75H3.125V7.5Z" fill="#718096"/>
<path d="M5.625 7.5H14.375V8.75H5.625V7.5Z" fill="#718096"/>
<path d="M3.125 10H4.375V11.25H3.125V10Z" fill="#718096"/>
<path d="M5.625 10H14.375V11.25H5.625V10Z" fill="#718096"/>
<path d="M3.125 12.5H4.375V13.75H3.125V12.5Z" fill="#718096"/>
<path d="M5.625 12.5H14.375V13.75H5.625V12.5Z" fill="#718096"/>
<path d="M3.125 15H4.375V16.25H3.125V15Z" fill="#718096"/>
<path d="M5.625 15H14.375V16.25H5.625V15Z" fill="#718096"/>
<path d="M3.125 27.5H6.875V21.25H3.125V27.5ZM4.375 22.5H5.625V26.25H4.375V22.5Z" fill="#718096"/>
<path d="M8.125 27.5H11.875V22.5H8.125V27.5ZM9.375 23.75H10.625V26.25H9.375V23.75Z" fill="#718096"/>
<path d="M13.125 27.5H16.875V17.5H13.125V27.5ZM14.375 18.75H15.625V26.25H14.375V18.75Z" fill="#718096"/>
</svg>
