<svg width="22" height="18" viewBox="0 0 22 18" fill="none" xmlns="http://www.w3.org/2000/svg">
<path fill-rule="evenodd" clip-rule="evenodd" d="M11.0003 2.26741C12.7603 0.207412 16.0203 -0.632588 18.6603 1.16741C20.0603 2.12741 20.9403 3.74741 21.0003 5.44741C21.1303 9.32741 17.7003 12.4374 12.4503 17.1974L12.3403 17.2974C11.5803 17.9974 10.4103 17.9974 9.65027 17.3074L9.55027 17.2174L9.48987 17.1625C4.27391 12.4235 0.860812 9.32251 1.00027 5.45741C1.06027 3.74741 1.94027 2.12741 3.34027 1.16741C5.98027 -0.642588 9.24027 0.207412 11.0003 2.26741ZM11.0003 15.8274L11.1003 15.7274C15.8603 11.4174 19.0003 8.56741 19.0003 5.67741C19.0003 3.67741 17.5003 2.17741 15.5003 2.17741C13.9603 2.17741 12.4603 3.16741 11.9403 4.53741H10.0703C9.54027 3.16741 8.04027 2.17741 6.50027 2.17741C4.50027 2.17741 3.00027 3.67741 3.00027 5.67741C3.00027 8.56741 6.14027 11.4174 10.9003 15.7274L11.0003 15.8274Z" fill="#cfdae9"/>
</svg>
