<svg width="24" height="24" viewBox="0 0 24 24" fill="none" xmlns="http://www.w3.org/2000/svg">
<path d="M11.9996 0C5.37248 0 0 5.37288 0 11.9998C0 18.6266 5.37248 24 11.9996 24C18.6267 24 23.9998 18.627 23.9998 11.9998C23.9998 5.37256 18.6267 0 11.9996 0ZM18.029 9.86416L15.0941 12.799C14.7758 13.1174 14.3526 13.2926 13.9025 13.2926C13.4525 13.2926 13.0292 13.1173 12.7109 12.7992L12.5959 12.6842L12.2834 12.9967L12.3982 13.1114C13.0553 13.7686 13.0553 14.8378 12.3982 15.4949L9.46368 18.4298C9.14536 18.7481 8.72216 18.9234 8.27184 18.9234C7.8216 18.9234 7.39832 18.748 7.07984 18.4295L5.97064 17.32C5.31352 16.6633 5.31352 15.5942 5.9704 14.9368L8.90552 12.0021C9.22384 11.6838 9.64704 11.5085 10.0974 11.5085C10.5477 11.5085 10.9706 11.6838 11.2892 12.0021L11.4038 12.1166L11.7162 11.8042L11.6017 11.6896C10.9446 11.0327 10.9446 9.96352 11.6013 9.3064L14.5364 6.37152C14.8549 6.05304 15.2782 5.87768 15.7282 5.87768C16.1783 5.87768 16.6015 6.05304 16.9201 6.37128L18.0295 7.48112C18.6861 8.13784 18.6861 9.2072 18.029 9.86416Z" fill="#196AFF"/>
<path d="M11.4021 13.8753L10.8347 14.4428L9.95453 13.5628L10.522 12.9954L10.4074 12.8808C10.3242 12.7979 10.2136 12.752 10.0962 12.752C9.97853 12.752 9.86797 12.7978 9.78477 12.8808L6.84989 15.8153C6.67829 15.9871 6.67829 16.2664 6.84989 16.438L7.95949 17.5478C8.12613 17.7144 8.41613 17.7142 8.58237 17.548L11.5168 14.6132C11.6887 14.4414 11.6887 14.1619 11.5168 13.99L11.4021 13.8753Z" fill="#196AFF"/>
<path d="M16.0384 7.25209C15.9552 7.16889 15.8444 7.12305 15.7267 7.12305C15.6091 7.12305 15.4983 7.16889 15.4151 7.25233L12.4802 10.187C12.3088 10.3588 12.3088 10.6381 12.4804 10.8099L12.5951 10.9245L13.4655 10.0538L14.3457 10.934L13.4753 11.8046L13.59 11.9194C13.7567 12.0855 14.0463 12.0858 14.2129 11.9191L17.1476 8.98464C17.3192 8.81288 17.3192 8.5336 17.1476 8.36176L16.0384 7.25209Z" fill="#196AFF"/>
</svg>
