<svg width="20" height="18" viewBox="0 0 20 18" fill="none" xmlns="http://www.w3.org/2000/svg">
<path fill-rule="evenodd" clip-rule="evenodd" d="M17.53 17.5036C19.07 17.5036 20.03 15.8336 19.26 14.5036L11.73 1.49359C10.96 0.163594 9.04 0.163594 8.27 1.49359L0.739999 14.5036C-0.0300009 15.8336 0.929999 17.5036 2.47 17.5036H17.53ZM10 10.5036C9.45 10.5036 9 10.0536 9 9.50359V7.50359C9 6.95359 9.45 6.50359 10 6.50359C10.55 6.50359 11 6.95359 11 7.50359V9.50359C11 10.0536 10.55 10.5036 10 10.5036ZM9 12.5036V14.5036H11V12.5036H9Z" fill="#718096"/>
</svg>
