<svg width="500" height="500" viewBox="0 0 500 500" fill="none" xmlns="http://www.w3.org/2000/svg">
<rect width="500" height="500" fill="#CFDAE9"/>
<path d="M250 266.125C290.061 266.125 322.562 233.623 322.562 193.562C322.562 153.502 290.061 121 250 121C209.939 121 177.438 153.502 177.438 193.562C177.438 233.623 209.939 266.125 250 266.125ZM314.5 282.25H286.735C275.548 287.39 263.102 290.312 250 290.312C236.898 290.312 224.502 287.39 213.265 282.25H185.5C149.874 282.25 121 311.124 121 346.75V354.812C121 368.166 131.834 379 145.188 379H354.812C368.166 379 379 368.166 379 354.812V346.75C379 311.124 350.126 282.25 314.5 282.25Z" fill="#718096"/>
</svg>
